# xmcd
#
# Track frame offsets: 
#        150
#        14479
#        30701
#        47681
#        64724
#        77537
#        92973
#        106587
#        124280
#        142189
#        162797
#
# Disc length: 2361 seconds
#
# Revision: 3
# Processed by: cddbd v1.5.2PL0 Copyright (c) Steve Scherf et al.
# Submitted via: ExactAudioCopy v1.0b1
#
DISCID=8c09370b
DTITLE=Chris LeDoux - After The Storm
DYEAR=2002
DGENRE=Country
TTITLE0=Some Things Never Change
TTITLE1=Millionaire
TTITLE2=Don't It Make You Want To Dance
TTITLE3=Daily Bread
TTITLE4=I Don't Want To Mention Any Names
TTITLE5=I Would For You
TTITLE6=Cowboy Up
TTITLE7=Scatter The Ashes
TTITLE8=What I'm Up Against
TTITLE9=Simple As Dirt
TTITLE10=Bareback Jack
EXTD=Capitol Nashville Records\nwww.capitolnashville.com
EXTT0=
EXTT1=
EXTT2=
EXTT3=
EXTT4=
EXTT5=
EXTT6=
EXTT7=
EXTT8=
EXTT9=
EXTT10=
PLAYORDER=
